<svg viewBox="0 0 125 25" fill="none" xmlns="http://www.w3.org/2000/svg"><g clip-path="url(#a)"><path d="M70.81.4h-6.52v23.66h6.52v-23.67Zm9.39 6.55h-6.6v17.2h6.6v-17.2Zm0-6.55h-6.6v4.52h6.6v-4.53Z" fill="currentColor"/><path d="m0 19.38 6.52-.63a2.9 2.9 0 0 0 1.09 1.64c.46.31 2.1.63 2.95.63.85 0 .54-.32 1-.63.4-.31.55-.62.55-1.02 0-.46-.23-.85-.77-1.09-.4-.16-1.32-.39-2.8-.7a31.6 31.6 0 0 1-4.74-1.1 5.3 5.3 0 0 1-2.25-1.71 4.32 4.32 0 0 1-.93-2.74c0-1.17.31-2.1 1.01-2.89a6.5 6.5 0 0 1 2.72-1.87c1.16-.4 2.72-.63 4.58-.63 2.02 0 3.57.16 4.5.47 1.01.31 1.79.78 2.4 1.4a8.6 8.6 0 0 1 1.64 2.66l-6.21.63a2.3 2.3 0 0 0-.78-1.25 3.5 3.5 0 0 0-3.5-.16c-.3.23-.46.55-.46.94 0 .39.23.7.62.94.4.23 1.4.39 2.8.62 2.17.23 3.8.63 4.81 1.02a5.44 5.44 0 0 1 2.4 1.87c.55.78.86 1.72.86 2.74 0 1.01-.3 1.95-.85 2.89a6.33 6.33 0 0 1-2.8 2.26c-1.24.55-3.02.86-5.2.86-3.1 0-5.36-.47-6.68-1.33a6.52 6.52 0 0 1-2.48-3.82Zm21.9 3.04c1.7 1.4 3.88 2.11 6.67 2.11 3.1 0 5.51-.86 7.22-2.5a8.8 8.8 0 0 0 2.64-6.48c0-2.35-.7-4.3-2.1-5.94-1.7-2.03-4.34-2.97-7.76-2.97-3.03 0-5.36.86-7.14 2.58a8.51 8.51 0 0 0-2.64 6.48 8.74 8.74 0 0 0 3.1 6.72Zm4.42-10.31c.62-.78 1.4-1.1 2.4-1.1.94 0 1.64.4 2.26 1.1.62.7.93 1.87.93 3.36 0 1.64-.31 2.81-.93 3.51a3.02 3.02 0 0 1-4.66 0c-.62-.78-.93-1.87-.93-3.43 0-1.57.3-2.74.93-3.44Zm20.88-5.16h3.11v4.85h-3.1v12.34h-6.6v-12.34h-2.48v-4.85h2.48v-.78c0-.7.08-1.48.23-2.34.16-.86.47-1.56.86-2.03a5.1 5.1 0 0 1 1.78-1.33 9.02 9.02 0 0 1 3.26-.47c1.17 0 2.8.16 5.05.4l-.78 3.98c-.77-.16-1.4-.16-1.94-.16-.62 0-1 .08-1.24.31-.23.16-.39.47-.47.86-.07.24-.15.78-.15 1.56Z" fill="#B01736"/><path d="M59 11.8v6.1c0 .7.08 1.24.24 1.48.23.39.62.54 1.09.54.46 0 1.16-.15 2.02-.39l.46 4.53c-1.63.4-3.1.55-4.5.55-1.63 0-2.8-.23-3.57-.63a3.85 3.85 0 0 1-1.71-1.95c-.39-.86-.55-2.26-.55-4.14v-6.02h-2.4v-4.92h2.4v-3.12l6.53-3.44v11.41Z" fill="#B01736"/><path d="M82.69 6.95h6.13v2.82a8.6 8.6 0 0 1 2.8-2.43c.93-.46 2.1-.7 3.41-.7a5.6 5.6 0 0 1 4.27 1.64c1.01 1.1 1.56 2.74 1.56 5v10.94h-6.6v-9.53c0-1.1-.24-1.88-.63-2.27-.38-.47-.93-.7-1.7-.7-.78 0-1.4.31-1.94.94-.47.62-.78 1.71-.78 3.28v8.28h-6.6v-17.27h.08Zm39.28 9.45c0-2.26-.39-4.13-1.09-5.54a7.8 7.8 0 0 0-3.26-3.28c-1.4-.78-3.34-1.1-5.74-1.1-3.03 0-5.36.86-7.07 2.5a8.62 8.62 0 0 0-2.56 6.49c0 1.87.39 3.51 1.24 4.92a7.91 7.91 0 0 0 3.19 3.05c1.31.62 3.1.93 5.35.93 2.56 0 4.58-.39 5.98-1.09a9.53 9.53 0 0 0 3.57-3.67l-6.44-.63c-.39.55-.78.86-1.17 1.1a3.6 3.6 0 0 1-1.78.47c-1.01 0-1.79-.4-2.49-1.1a4.64 4.64 0 0 1-.85-2.34h13.04v-.7h.08Zm-13.04-2.34c.07-1.01.38-1.8.77-2.34a2.92 2.92 0 0 1 2.49-1.25c.93 0 1.63.31 2.17.86.55.54.86 1.48 1.01 2.73h-6.44Zm-78.88-11.4c7.45.78 10.48 1.48 17.47 3.35 5.82 1.57 15.06.86 15.06.86v4.85c-3.65.47-11.5.31-18.01-2.11-11.73-4.22-17-5.08-23.22-5.55-8.54-.62-18.63.7-18.63.7l-.08-.85s14.6-2.58 27.4-1.25Zm91.69.94h.31c.47 0 .55-.24.55-.4 0-.3-.47-.3-.55-.3h-.3v.7Zm.55-1.26c.7 0 1 .4 1 .79s-.3.62-.62.7c.16.08.31.23.31.31l.47 1.17h-.78l-.39-.93c0-.08-.15-.24-.38-.24h-.16v1.17h-.77v-2.97h1.31Zm-.24 3.75a2.26 2.26 0 0 0 2.25-2.26c0-1.25-1-2.27-2.25-2.27a2.26 2.26 0 0 0 0 4.53Zm0-5.23a2.96 2.96 0 0 1 2.95 2.97 2.96 2.96 0 0 1-2.95 2.97 2.96 2.96 0 0 1-2.95-2.97c.08-1.64 1.32-2.97 2.95-2.97Z" fill="currentColor"/></g><defs><clipPath id="a"><path fill="#fff" d="M0 0h125v25h-125z"/></clipPath></defs></svg>