<svg viewBox="0 0 1250 377" fill="none" xmlns="http://www.w3.org/2000/svg"><g opacity=".4"><path d="M1025.8 213.6h245.93v-2.92h-245.93v2.93Zm257.64 11.71h2.93v17.57c0 .44-.15.73-.44 1.03l-89.59 89.3c-.29.29-.59.43-1.03.43h-81.68v-2.93h81.1l88.71-88.41v-16.99Zm-212.26-147.85h109.79c.44 0 .73.15 1.02.44l103.94 103.94c.29.3.44.58.44 1.02v14.64h-2.93v-14.05l-103.06-103.06h-109.2v-2.93Z" fill="#A30C33"/><path d="M1144.38 171.15h58.84c.44 0 .74.15 1.03.44l39.52 39.23-2.05 2.05-39.08-38.79h-58.26v-2.93Zm40.69 39.82 2.05 2.05-39.38 39.67c-.29.3-.59.44-1.03.44h-59.43v-2.93h58.85l38.94-39.23Zm-223.67 74.36h232.46c.44 0 .73.15 1.02.44l23.28 23.57-2.05 2.05-22.84-23.13h-231.87v-2.93Zm207.28 45.82 2.05 2.06-38.06 38.06c-.3.29-.59.44-1.03.44h-121.94v-2.93h121.36l37.62-37.63Zm-23.72-325.42 59 59c.29.29.43.58.43 1.02v35.13h-2.92v-34.54l-58.56-58.56 2.05-2.05Zm13.32 72.62 2.05 2.04-38.79 39.09c-.29.3-.59.44-1.03.44h-147.4v-2.93h146.67l38.5-38.64Zm-136.87-41.88h65.58c.44 0 .73.15 1.03.44l41.28 41.28-2.05 2.05-40.84-40.84h-65v-2.93Z" fill="#A30C33"/><path d="M1009.7 363.5a6.74 6.74 0 1 0 0 13.48 6.74 6.74 0 0 0 0-13.47Zm90.76-46.84c8.49 0 15.51 6.88 15.51 15.52s-6.88 15.52-15.51 15.52a15.53 15.53 0 0 1 0-31.03Zm0 28.1c6.88 0 12.58-5.7 12.58-12.58s-5.7-12.59-12.58-12.59-12.59 5.7-12.59 12.59c0 6.88 5.71 12.59 12.59 12.59Z" fill="#A30C33"/><path d="M1100.46 325.45a6.73 6.73 0 1 0 0 13.46 6.73 6.73 0 0 0 0-13.46Zm-145.8-38.95a6.81 6.81 0 0 1 6.73-6.73 6.81 6.81 0 0 1 6.74 6.74 6.81 6.81 0 0 1-6.74 6.73 6.72 6.72 0 0 1-6.73-6.73Zm132.63-41.57a6.74 6.74 0 1 0 0 13.48 6.74 6.74 0 0 0 0-13.48Zm-74.66-48.31c8.49 0 15.51 6.88 15.51 15.52s-6.88 15.52-15.51 15.52a15.53 15.53 0 0 1 0-31.03Zm0 28.11c6.88 0 12.59-5.7 12.59-12.59 0-6.88-5.71-12.59-12.59-12.59s-12.59 5.71-12.59 12.6c0 6.87 5.71 12.58 12.59 12.58Z" fill="#A30C33"/><path d="M1012.63 205.4a6.73 6.73 0 1 0 0 13.47 6.73 6.73 0 0 0 0-13.46Zm131.75-39.52a6.73 6.73 0 1 0 0 13.46 6.73 6.73 0 0 0 0-13.46Zm-171.28-54.16a6.73 6.73 0 1 0 0 13.47 6.73 6.73 0 0 0 0-13.47Zm84.91-48.02c8.49 0 15.51 6.88 15.51 15.52s-6.88 15.52-15.51 15.52a15.53 15.53 0 0 1 0-31.03Zm0 28.1c6.88 0 12.59-5.7 12.59-12.58s-5.71-12.6-12.59-12.6-12.59 5.72-12.59 12.6 5.71 12.59 12.59 12.59Z" fill="#A30C33"/><path d="M1051.27 79.22a6.82 6.82 0 0 1 6.74-6.73 6.8 6.8 0 0 1 6.73 6.73 6.8 6.8 0 0 1-6.73 6.73 6.82 6.82 0 0 1-6.74-6.73Zm-29.86-48.02a6.73 6.73 0 1 0 0 13.47 6.73 6.73 0 0 0 0-13.46Zm115.79-24.44a6.8 6.8 0 0 1 6.73-6.73 6.8 6.8 0 0 1 6.73 6.73 6.8 6.8 0 0 1-6.73 6.73 6.8 6.8 0 0 1-6.73-6.73Z" fill="#A30C33"/><g opacity=".4" fill="#000"><path d="M1137.2 213.48h137.45v-2.67h-137.45v2.67Zm146.24 11.83h2.93v17.57c0 .44-.15.73-.44 1.03l-89.59 89.3c-.29.29-.59.43-1.03.43h-81.68v-2.93h81.1l88.71-88.41v-16.99Zm-212.26-147.85h109.79c.44 0 .73.15 1.02.44l103.94 103.94c.29.3.44.58.44 1.02v14.64h-2.93v-14.05l-103.06-103.06h-109.2v-2.93Z"/><path d="M1144.37 171.15h58.85c.44 0 .73.15 1.02.44l39.53 39.23-2.05 2.05-39.09-38.79h-58.26v-2.93Zm40.7 39.82 2.05 2.05-39.38 39.67c-.29.3-.59.44-1.03.44h-39.43v-2.93h38.85l38.94-39.23Zm-223.68 74.36h232.46c.44 0 .73.15 1.03.44l23.27 23.57-2.05 2.05-22.83-23.13h-231.88v-2.93Zm207.28 45.82 2.05 2.06-38.06 38.06c-.29.29-.59.44-1.03.44h-121.94v-2.93h121.36l37.62-37.63Zm-23.71-325.42 58.99 59c.29.29.44.58.44 1.02v35.13h-2.93v-34.54l-58.55-58.56 2.05-2.05Zm13.32 72.62 2.05 2.04-38.79 39.09c-.29.3-.59.44-1.03.44h-147.4v-2.93h146.67l38.5-38.64Zm-136.87-41.88h65.58c.44 0 .73.15 1.03.44l41.28 41.28-2.05 2.05-40.84-40.84h-65v-2.93Z"/><path d="M1009.7 363.5a6.74 6.74 0 1 0 0 13.48 6.74 6.74 0 0 0 0-13.47Zm90.76-46.84a15.53 15.53 0 1 1-.02 31.06 15.53 15.53 0 0 1 .02-31.06Zm0 28.1c6.88 0 12.59-5.7 12.59-12.58s-5.71-12.59-12.59-12.59-12.59 5.7-12.59 12.59c0 6.88 5.71 12.59 12.59 12.59Zm-145.81-58.26a6.81 6.81 0 0 1 6.74-6.73 6.81 6.81 0 0 1 6.73 6.74 6.81 6.81 0 0 1-6.73 6.73 6.72 6.72 0 0 1-6.74-6.73Zm152.64-41.57a6.74 6.74 0 1 0 0 13.48 6.74 6.74 0 0 0 0-13.48Zm37.09-79.05a6.73 6.73 0 1 0 0 13.46 6.73 6.73 0 0 0 0-13.46Zm-10.38 40.26a6.73 6.73 0 1 0 0 13.46 6.73 6.73 0 0 0 0-13.46Zm-160.9-94.42a6.73 6.73 0 1 0 0 13.47 6.73 6.73 0 0 0 0-13.47Zm84.9-48.02a15.53 15.53 0 0 1 0 31.04 15.43 15.43 0 0 1-15.51-15.52c0-8.64 7.02-15.52 15.51-15.52Zm0 28.1c6.88 0 12.59-5.7 12.59-12.58s-5.71-12.6-12.59-12.6-12.59 5.72-12.59 12.6 5.71 12.59 12.59 12.59Zm-36.59-60.6a6.74 6.74 0 1 0 0 13.48 6.74 6.74 0 0 0 0-13.47Zm115.79-24.44a6.8 6.8 0 0 1 6.73-6.73 6.8 6.8 0 0 1 6.73 6.73 6.8 6.8 0 0 1-6.73 6.73 6.8 6.8 0 0 1-6.73-6.73Z"/></g></g><g opacity=".4"><path d="M228.9 163.4h-245.93v2.92h245.93v-2.93Zm-257.63-11.71h-2.93v-17.57c0-.44.15-.73.44-1.03l89.59-89.3c.3-.29.58-.43 1.02-.43h81.69v2.93h-81.1l-88.71 88.41v16.99Zm212.26 147.85h-109.8c-.43 0-.72-.15-1.02-.44l-103.93-103.94a1.3 1.3 0 0 1-.44-1.02v-14.64h2.93v14.05l103.05 103.06h109.21v2.93Z" fill="#A30C33"/><path d="M110.33 205.85h-58.85c-.44 0-.73-.15-1.02-.44l-39.53-39.23 2.05-2.05 39.09 38.79h58.26v2.93Zm-40.69-39.82-2.05-2.05 39.38-39.67c.3-.3.58-.44 1.02-.44h59.44v2.93h-58.85l-38.94 39.23Zm223.67-74.36h-232.46c-.44 0-.73-.15-1.03-.44l-23.27-23.57 2.05-2.05 22.83 23.13h231.88v2.93Zm-207.28-45.82-2.05-2.05 38.06-38.06c.3-.3.59-.44 1.03-.44h121.94v2.93h-121.36l-37.62 37.62Zm23.72 325.42-59-59a1.3 1.3 0 0 1-.44-1.02v-35.13h2.93v34.54l58.55 58.56-2.04 2.05Zm-13.33-72.62-2.05-2.04 38.8-39.09c.3-.3.58-.44 1.02-.44h147.42v2.93h-146.69l-38.5 38.64Zm136.88 41.88h-65.58c-.44 0-.74-.15-1.03-.44l-41.28-41.28 2.05-2.05 40.84 40.84h65v2.93Z" fill="#A30C33"/><path d="M245.01 13.5a6.73 6.73 0 1 0 0-13.47 6.73 6.73 0 0 0 0 13.46Zm-90.76 46.84a15.53 15.53 0 0 1-15.52-15.52c0-8.64 6.89-15.52 15.52-15.52 8.64 0 15.52 6.88 15.52 15.52s-7.03 15.52-15.52 15.52Zm0-28.1c-6.88 0-12.59 5.7-12.59 12.58s5.71 12.59 12.6 12.59c6.87 0 12.58-5.7 12.58-12.59 0-6.88-5.7-12.59-12.59-12.59Z" fill="#A30C33"/><path d="M154.25 51.55a6.73 6.73 0 1 0 0-13.46 6.73 6.73 0 0 0 0 13.46Zm145.8 38.95a6.81 6.81 0 0 1-6.73 6.73 6.81 6.81 0 0 1-6.74-6.74 6.81 6.81 0 0 1 6.74-6.73 6.72 6.72 0 0 1 6.73 6.73Zm-132.63 41.57a6.73 6.73 0 1 0 0-13.47 6.73 6.73 0 0 0 0 13.47Zm74.66 48.31c-8.5 0-15.52-6.88-15.52-15.52s6.88-15.52 15.52-15.52 15.52 6.88 15.52 15.52-7.03 15.52-15.52 15.52Zm0-28.11c-6.88 0-12.59 5.7-12.59 12.59 0 6.88 5.7 12.59 12.59 12.59 6.88 0 12.59-5.71 12.59-12.59s-5.71-12.59-12.59-12.59Z" fill="#A30C33"/><path d="M242.07 171.6a6.73 6.73 0 1 0 0-13.48 6.73 6.73 0 0 0 0 13.47Zm-131.75 39.52a6.73 6.73 0 1 0 0-13.47 6.73 6.73 0 0 0 0 13.47Zm171.28 54.16a6.73 6.73 0 1 0 0-13.47 6.73 6.73 0 0 0 0 13.47Zm-84.9 48.02c-8.49 0-15.52-6.88-15.52-15.52s6.88-15.52 15.52-15.52 15.52 6.88 15.52 15.52-7.03 15.52-15.52 15.52Zm0-28.1c-6.88 0-12.59 5.7-12.59 12.58s5.71 12.6 12.6 12.6c6.87 0 12.58-5.72 12.58-12.6s-5.7-12.59-12.59-12.59Z" fill="#A30C33"/><path d="M203.43 297.78a6.81 6.81 0 0 1-6.73 6.73 6.81 6.81 0 0 1-6.73-6.73 6.81 6.81 0 0 1 6.73-6.73 6.81 6.81 0 0 1 6.73 6.73Zm29.87 48.02a6.73 6.73 0 1 0 0-13.47 6.73 6.73 0 0 0 0 13.46Zm-115.79 24.44a6.81 6.81 0 0 1-6.73 6.73 6.81 6.81 0 0 1-6.74-6.73 6.81 6.81 0 0 1 6.74-6.73 6.81 6.81 0 0 1 6.73 6.73Z" fill="#A30C33"/><g opacity=".4" fill="#000"><path d="M228.91 163.4h-248.86v2.92h248.86v-2.93Zm-257.64-11.71h-2.93v-17.57c0-.44.15-.73.44-1.03l89.59-89.3c.3-.29.58-.43 1.02-.43h81.69v2.93h-81.1l-88.71 88.41v16.99Zm212.26 147.85h-109.8c-.43 0-.72-.15-1.02-.44l-103.93-103.94a1.3 1.3 0 0 1-.44-1.02v-14.64h2.93v14.05l103.05 103.06h109.21v2.93Z"/><path d="M110.33 205.85h-58.84c-.44 0-.73-.15-1.03-.44l-39.52-39.23 2.05-2.05 39.08 38.79h58.26v2.93Zm-40.69-39.82-2.05-2.05 39.38-39.67c.3-.3.58-.44 1.02-.44h59.44v2.93h-58.85l-38.94 39.23Zm223.68-74.36h-232.46c-.44 0-.74-.15-1.03-.44l-23.28-23.57 2.05-2.05 22.84 23.13h231.88v2.93Zm-207.28-45.82-2.05-2.05 38.06-38.06c.3-.3.59-.44 1.02-.44h121.94v2.93h-121.35l-37.62 37.62Zm23.71 325.42-59-59a1.32 1.32 0 0 1-.43-1.02v-35.13h2.92v34.54l58.56 58.56-2.05 2.05Zm-13.33-72.62-2.05-2.04 38.8-39.09c.3-.3.58-.44 1.02-.44h147.42v2.93h-146.69l-38.5 38.64Zm136.88 41.88h-65.58c-.44 0-.74-.15-1.03-.44l-41.28-41.28 2.05-2.05 40.84 40.84h65v2.93Z"/><path d="M245.01 13.5a6.73 6.73 0 1 0 0-13.47 6.73 6.73 0 0 0 0 13.46Zm-90.76 46.84c-8.5 0-15.52-6.88-15.52-15.52s6.88-15.52 15.52-15.52c8.63 0 15.51 6.88 15.51 15.52s-7.02 15.52-15.51 15.52Zm0-28.1c-6.88 0-12.6 5.7-12.6 12.58s5.72 12.59 12.6 12.59 12.59-5.7 12.59-12.59c0-6.88-5.71-12.59-12.6-12.59Zm145.8 58.26a6.81 6.81 0 0 1-6.73 6.73 6.81 6.81 0 0 1-6.73-6.74 6.81 6.81 0 0 1 6.73-6.73 6.72 6.72 0 0 1 6.73 6.73Zm-132.63 41.57a6.73 6.73 0 1 0 0-13.47 6.73 6.73 0 0 0 0 13.47Zm74.66 48.31c-8.49 0-15.51-6.88-15.51-15.52s6.88-15.52 15.51-15.52c8.64 0 15.52 6.88 15.52 15.52s-7.03 15.52-15.52 15.52Zm0-28.11c-6.88 0-12.59 5.7-12.59 12.59 0 6.88 5.71 12.59 12.6 12.59 6.87 0 12.58-5.71 12.58-12.59s-5.7-12.59-12.59-12.59Zm-131.75 58.85a6.73 6.73 0 1 0 0-13.47 6.73 6.73 0 0 0 0 13.47Zm171.27 54.16a6.73 6.73 0 1 0 0-13.47 6.73 6.73 0 0 0 0 13.47Zm-84.9 48.02c-8.49 0-15.51-6.88-15.51-15.52s6.88-15.52 15.52-15.52c8.63 0 15.51 6.88 15.51 15.52s-7.03 15.52-15.51 15.52Zm0-28.1c-6.88 0-12.58 5.7-12.58 12.58s5.7 12.6 12.59 12.6c6.88 0 12.58-5.72 12.58-12.6s-5.7-12.59-12.58-12.59Zm36.6 60.6a6.73 6.73 0 1 0 0-13.47 6.73 6.73 0 0 0 0 13.46Zm-115.79 24.44a6.81 6.81 0 0 1-6.73 6.73 6.81 6.81 0 0 1-6.74-6.73 6.81 6.81 0 0 1 6.74-6.73 6.81 6.81 0 0 1 6.73 6.73Z"/></g></g></svg>