<svg viewBox="0 0 49 48" fill="none" xmlns="http://www.w3.org/2000/svg"><g opacity=".9" stroke="#B01736" stroke-width="2"><path d="M9.6 13.4c-2.1 0-3.8-1.7-3.8-3.75 0-.39.17-1.07.52-1.98.33-.88.79-1.87 1.27-2.82a67.8 67.8 0 0 1 2.01-3.71c.37.62 1.21 2.1 2.02 3.71.48.95.94 1.94 1.27 2.82.35.91.51 1.6.51 1.98 0 2.06-1.7 3.75-3.8 3.75Zm-3.8 1.96c0-.78.63-1.4 1.4-1.4h4.8c.78 0 1.4.62 1.4 1.4v12.05h-7.6v-12.05Zm14.4 0c0-.78.63-1.4 1.4-1.4h4.8c.78 0 1.4.62 1.4 1.4v12.05h-7.6v-12.05Zm7.6-5.71c0 2.06-1.7 3.75-3.8 3.75-2.1 0-3.8-1.7-3.8-3.75 0-.39.17-1.07.52-1.98.33-.88.79-1.87 1.26-2.82a65.2 65.2 0 0 1 2.02-3.71c.37.62 1.21 2.1 2.02 3.71.48.95.93 1.94 1.27 2.82.34.91.51 1.6.51 1.98Zm6.8 5.71c0-.78.63-1.4 1.4-1.4h4.8c.77 0 1.4.62 1.4 1.4v12.05h-7.6v-12.05Zm3.8-1.96c-2.1 0-3.8-1.7-3.8-3.75 0-.39.17-1.07.52-1.98.33-.88.79-1.87 1.26-2.82a65.2 65.2 0 0 1 2.02-3.71c.37.62 1.21 2.1 2.02 3.71.48.95.93 1.94 1.27 2.82.34.91.51 1.6.51 1.98 0 2.06-1.7 3.75-3.8 3.75Zm-37.67 23.09 2.09 1.61c1 .79 2.78.79 3.8 0l2.07-1.61a1.53 1.53 0 0 1 1.74 0l2.08 1.61c1.05.81 2.75.81 3.8 0l2.08-1.61a1.53 1.53 0 0 1 1.73 0l2.08 1.61c.5.4 1.18.61 1.9.61s1.4-.22 1.9-.6l2.08-1.62a1.53 1.53 0 0 1 1.74 0l2.08 1.61c1.04.81 2.75.81 3.8 0l2.07-1.61a1.53 1.53 0 0 1 1.74 0l2.08 1.61c1.05.81 2.75.81 3.8 0l2.08-1.61"/><rect x="1.004" y="27.475" width="45.995" height="19.523" rx="3.8"/></g></svg>