<svg viewBox="0 0 68 50" fill="none" xmlns="http://www.w3.org/2000/svg"><g opacity=".9"><mask id="a" maskUnits="userSpaceOnUse" x="0" y="0" width="68" height="50" fill="#000"><path fill="#fff" d="M0 0h68v50h-68z"/><path d="M51.62 1c-.45 0-.87.19-1.18.5l-5.6 5.58a1.7 1.7 0 0 0 0 2.41l.27.27a4.28 4.28 0 0 1-4.77 1 5.84 5.84 0 0 0-6.4 1.23l-.66.66a5.49 5.49 0 0 0-2.86-1.7 20.08 20.08 0 0 0-7.2.02c.6-.68.58-1.7-.06-2.35l-5.6-5.58a1.71 1.71 0 0 0-2.41 0l-13.65 13.62a1.7 1.7 0 0 0 0 2.4l5.6 5.6c.66.66 1.74.66 2.41 0l.24-.25a17.22 17.22 0 0 1 3.35 5.42c.9 1.63 2.15 3.04 3.67 4.13a3.15 3.15 0 0 0 3.02 5.12 3.14 3.14 0 0 0 3.79 4.01 3.15 3.15 0 0 0 2.8 3.92c.92.08 1.83-.26 2.49-.91l.3-.3a3.15 3.15 0 0 0 5.39 2.28l2.47-2.46c.1-.1.18-.2.26-.3a3.17 3.17 0 0 0 4.97-2.63l.43.42a3.16 3.16 0 0 0 5.02-3.71 3.16 3.16 0 0 0 3.39-3.48l3.58-3.58a9.25 9.25 0 0 0 2.69-5.83c.1-1.3.31-2.6.63-3.88l.5.49a1.7 1.7 0 0 0 2.4 0l5.6-5.59a1.7 1.7 0 0 0 0-2.4l-13.65-13.63c-.32-.32-.77-.5-1.23-.5Zm.01.89c.22 0 .43.08.59.24l13.64 13.62a.81.81 0 0 1 0 1.15l-5.59 5.58a.82.82 0 0 1-1.15 0l-13.65-13.62a.81.81 0 0 1 0-1.15l5.6-5.58a.82.82 0 0 1 .56-.24Zm-35.29 1.54c.22 0 .44.08.6.24l5.59 5.58c.31.32.31.83 0 1.15l-13.65 13.62a.82.82 0 0 1-1.16 0l-5.59-5.58a.82.82 0 0 1 0-1.15l13.65-13.62a.81.81 0 0 1 .56-.24Zm29.4 6.96 11.53 11.5a25.2 25.2 0 0 0-.79 4.55 8.37 8.37 0 0 1-2.43 5.27l-3.23 3.22a3.16 3.16 0 0 0-.63-.9l-13.43-13.4a8.56 8.56 0 0 0 5.23-1.4.44.44 0 0 0-.49-.74 7.66 7.66 0 0 1-6.2 1c-.59-.16-1.21 0-1.65.44l-6.15 6.14a2.27 2.27 0 0 1-3.76-1.03c-.21-.77 0-1.6.56-2.17l10.26-10.25a4.94 4.94 0 0 1 5.43-1.05 5.18 5.18 0 0 0 5.75-1.18Zm-18 1.15c.84.04 1.67.13 2.5.28a4.6 4.6 0 0 1 2.4 1.46l-8.98 8.96a3.15 3.15 0 0 0 4.47 4.46l6.15-6.14a.82.82 0 0 1 1.16 0l14.12 14.09a2.26 2.26 0 0 1-3.2 3.2l-3.64-3.63a.45.45 0 0 0-.63.63l4.43 4.43a2.26 2.26 0 0 1-3.2 3.2l-6.45-6.43a.45.45 0 0 0-.63.62l4.46 4.46a2.26 2.26 0 0 1-.82 3.7c-.72.27-1.53.16-2.14-.3a3.15 3.15 0 0 0-3.89-4.15 3.15 3.15 0 0 0-4.5-3.44 3.15 3.15 0 0 0-3.05-3.45c-.87-.03-1.71.3-2.33.92l-.78.78a3.15 3.15 0 0 0-5.39-2.28l-.4.4a11.5 11.5 0 0 1-3.48-3.86 18.03 18.03 0 0 0-3.53-5.67l11.67-11.65c1.85-.48 3.77-.68 5.7-.59h-.01Zm-7.81 21.34a2.27 2.27 0 0 1 1.7 3.86l-.84.84a2.27 2.27 0 0 1-3.2-3.2l.84-.84c.4-.4.93-.63 1.5-.66Zm6.3 1.54a2.27 2.27 0 0 1 1.57 3.82l-3.4 3.4a2.27 2.27 0 0 1-3.73-1.05 2.26 2.26 0 0 1 .53-2.15l3.4-3.4a2.27 2.27 0 0 1 1.63-.62Zm4.57 3.1a2.27 2.27 0 0 1 1.56 3.84l-2.27 2.26-1.85 1.84a2.27 2.27 0 0 1-3.2-3.2l4.11-4.1a2.27 2.27 0 0 1 1.65-.63Zm4.02 3.64a2.27 2.27 0 0 1 1.57 3.83l-2.46 2.46a2.27 2.27 0 0 1-3.2-3.2l2.46-2.47a2.27 2.27 0 0 1 1.63-.62Z"/></mask><path d="M51.62 1c-.45 0-.87.19-1.18.5l-5.6 5.58a1.7 1.7 0 0 0 0 2.41l.27.27a4.28 4.28 0 0 1-4.77 1 5.84 5.84 0 0 0-6.4 1.23l-.66.66a5.49 5.49 0 0 0-2.86-1.7 20.08 20.08 0 0 0-7.2.02c.6-.68.58-1.7-.06-2.35l-5.6-5.58a1.71 1.71 0 0 0-2.41 0l-13.65 13.62a1.7 1.7 0 0 0 0 2.4l5.6 5.6c.66.66 1.74.66 2.41 0l.24-.25a17.22 17.22 0 0 1 3.35 5.42c.9 1.63 2.15 3.04 3.67 4.13a3.15 3.15 0 0 0 3.02 5.12 3.14 3.14 0 0 0 3.79 4.01 3.15 3.15 0 0 0 2.8 3.92c.92.08 1.83-.26 2.49-.91l.3-.3a3.15 3.15 0 0 0 5.39 2.28l2.47-2.46c.1-.1.18-.2.26-.3a3.17 3.17 0 0 0 4.97-2.63l.43.42a3.16 3.16 0 0 0 5.02-3.71 3.16 3.16 0 0 0 3.39-3.48l3.58-3.58a9.25 9.25 0 0 0 2.69-5.83c.1-1.3.31-2.6.63-3.88l.5.49a1.7 1.7 0 0 0 2.4 0l5.6-5.59a1.7 1.7 0 0 0 0-2.4l-13.65-13.63c-.32-.32-.77-.5-1.23-.5Zm.01.89c.22 0 .43.08.59.24l13.64 13.62a.81.81 0 0 1 0 1.15l-5.59 5.58a.82.82 0 0 1-1.15 0l-13.65-13.62a.81.81 0 0 1 0-1.15l5.6-5.58a.82.82 0 0 1 .56-.24Zm-35.29 1.54c.22 0 .44.08.6.24l5.59 5.58c.31.32.31.83 0 1.15l-13.65 13.62a.82.82 0 0 1-1.16 0l-5.59-5.58a.82.82 0 0 1 0-1.15l13.65-13.62a.81.81 0 0 1 .56-.24Zm29.4 6.96 11.53 11.5a25.2 25.2 0 0 0-.79 4.55 8.37 8.37 0 0 1-2.43 5.27l-3.23 3.22a3.16 3.16 0 0 0-.63-.9l-13.43-13.4a8.56 8.56 0 0 0 5.23-1.4.44.44 0 0 0-.49-.74 7.66 7.66 0 0 1-6.2 1c-.59-.16-1.21 0-1.65.44l-6.15 6.14a2.27 2.27 0 0 1-3.76-1.03c-.21-.77 0-1.6.56-2.17l10.26-10.25a4.94 4.94 0 0 1 5.43-1.05 5.18 5.18 0 0 0 5.75-1.18Zm-18 1.15c.84.04 1.67.13 2.5.28a4.6 4.6 0 0 1 2.4 1.46l-8.98 8.96a3.15 3.15 0 0 0 4.47 4.46l6.15-6.14a.82.82 0 0 1 1.16 0l14.12 14.09a2.26 2.26 0 0 1-3.2 3.2l-3.64-3.63a.45.45 0 0 0-.63.63l4.43 4.43a2.26 2.26 0 0 1-3.2 3.2l-6.45-6.43a.45.45 0 0 0-.63.62l4.46 4.46a2.26 2.26 0 0 1-.82 3.7c-.72.27-1.53.16-2.14-.3a3.15 3.15 0 0 0-3.89-4.15 3.15 3.15 0 0 0-4.5-3.44 3.15 3.15 0 0 0-3.05-3.45c-.87-.03-1.71.3-2.33.92l-.78.78a3.15 3.15 0 0 0-5.39-2.28l-.4.4a11.5 11.5 0 0 1-3.48-3.86 18.03 18.03 0 0 0-3.53-5.67l11.67-11.65c1.85-.48 3.77-.68 5.7-.59h-.01Zm-7.81 21.34a2.27 2.27 0 0 1 1.7 3.86l-.84.84a2.27 2.27 0 0 1-3.2-3.2l.84-.84c.4-.4.93-.63 1.5-.66Zm6.3 1.54a2.27 2.27 0 0 1 1.57 3.82l-3.4 3.4a2.27 2.27 0 0 1-3.73-1.05 2.26 2.26 0 0 1 .53-2.15l3.4-3.4a2.27 2.27 0 0 1 1.63-.62Zm4.57 3.1a2.27 2.27 0 0 1 1.56 3.84l-2.27 2.26-1.85 1.84a2.27 2.27 0 0 1-3.2-3.2l4.11-4.1a2.27 2.27 0 0 1 1.65-.63Zm4.02 3.64a2.27 2.27 0 0 1 1.57 3.83l-2.46 2.46a2.27 2.27 0 0 1-3.2-3.2l2.46-2.47a2.27 2.27 0 0 1 1.63-.62Z" fill="#B01736"/><path d="M51.62 1c-.45 0-.87.19-1.18.5l-5.6 5.58a1.7 1.7 0 0 0 0 2.41l.27.27a4.28 4.28 0 0 1-4.77 1 5.84 5.84 0 0 0-6.4 1.23l-.66.66a5.49 5.49 0 0 0-2.86-1.7 20.08 20.08 0 0 0-7.2.02c.6-.68.58-1.7-.06-2.35l-5.6-5.58a1.71 1.71 0 0 0-2.41 0l-13.65 13.62a1.7 1.7 0 0 0 0 2.4l5.6 5.6c.66.66 1.74.66 2.41 0l.24-.25a17.22 17.22 0 0 1 3.35 5.42c.9 1.63 2.15 3.04 3.67 4.13a3.15 3.15 0 0 0 3.02 5.12 3.14 3.14 0 0 0 3.79 4.01 3.15 3.15 0 0 0 2.8 3.92c.92.08 1.83-.26 2.49-.91l.3-.3a3.15 3.15 0 0 0 5.39 2.28l2.47-2.46c.1-.1.18-.2.26-.3a3.17 3.17 0 0 0 4.97-2.63l.43.42a3.16 3.16 0 0 0 5.02-3.71 3.16 3.16 0 0 0 3.39-3.48l3.58-3.58a9.25 9.25 0 0 0 2.69-5.83c.1-1.3.31-2.6.63-3.88l.5.49a1.7 1.7 0 0 0 2.4 0l5.6-5.59a1.7 1.7 0 0 0 0-2.4l-13.65-13.63c-.32-.32-.77-.5-1.23-.5Zm.01.89c.22 0 .43.08.59.24l13.64 13.62a.81.81 0 0 1 0 1.15l-5.59 5.58a.82.82 0 0 1-1.15 0l-13.65-13.62a.81.81 0 0 1 0-1.15l5.6-5.58a.82.82 0 0 1 .56-.24Zm-35.29 1.54c.22 0 .44.08.6.24l5.59 5.58c.31.32.31.83 0 1.15l-13.65 13.62a.82.82 0 0 1-1.16 0l-5.59-5.58a.82.82 0 0 1 0-1.15l13.65-13.62a.81.81 0 0 1 .56-.24Zm29.4 6.96 11.53 11.5a25.2 25.2 0 0 0-.79 4.55 8.37 8.37 0 0 1-2.43 5.27l-3.23 3.22a3.16 3.16 0 0 0-.63-.9l-13.43-13.4a8.56 8.56 0 0 0 5.23-1.4.44.44 0 0 0-.49-.74 7.66 7.66 0 0 1-6.2 1c-.59-.16-1.21 0-1.65.44l-6.15 6.14a2.27 2.27 0 0 1-3.76-1.03c-.21-.77 0-1.6.56-2.17l10.26-10.25a4.94 4.94 0 0 1 5.43-1.05 5.18 5.18 0 0 0 5.75-1.18Zm-18 1.15c.84.04 1.67.13 2.5.28a4.6 4.6 0 0 1 2.4 1.46l-8.98 8.96a3.15 3.15 0 0 0 4.47 4.46l6.15-6.14a.82.82 0 0 1 1.16 0l14.12 14.09a2.26 2.26 0 0 1-3.2 3.2l-3.64-3.63a.45.45 0 0 0-.63.63l4.43 4.43a2.26 2.26 0 0 1-3.2 3.2l-6.45-6.43a.45.45 0 0 0-.63.62l4.46 4.46a2.26 2.26 0 0 1-.82 3.7c-.72.27-1.53.16-2.14-.3a3.15 3.15 0 0 0-3.89-4.15 3.15 3.15 0 0 0-4.5-3.44 3.15 3.15 0 0 0-3.05-3.45c-.87-.03-1.71.3-2.33.92l-.78.78a3.15 3.15 0 0 0-5.39-2.28l-.4.4a11.5 11.5 0 0 1-3.48-3.86 18.03 18.03 0 0 0-3.53-5.67l11.67-11.65c1.85-.48 3.77-.68 5.7-.59h-.01Zm-7.81 21.34a2.27 2.27 0 0 1 1.7 3.86l-.84.84a2.27 2.27 0 0 1-3.2-3.2l.84-.84c.4-.4.93-.63 1.5-.66Zm6.3 1.54a2.27 2.27 0 0 1 1.57 3.82l-3.4 3.4a2.27 2.27 0 0 1-3.73-1.05 2.26 2.26 0 0 1 .53-2.15l3.4-3.4a2.27 2.27 0 0 1 1.63-.62Zm4.57 3.1a2.27 2.27 0 0 1 1.56 3.84l-2.27 2.26-1.85 1.84a2.27 2.27 0 0 1-3.2-3.2l4.11-4.1a2.27 2.27 0 0 1 1.65-.63Zm4.02 3.64a2.27 2.27 0 0 1 1.57 3.83l-2.46 2.46a2.27 2.27 0 0 1-3.2-3.2l2.46-2.47a2.27 2.27 0 0 1 1.63-.62Z" stroke="#B01736" mask="url(#a)"/></g></svg>