<svg viewBox="0 0 48 48" fill="none" xmlns="http://www.w3.org/2000/svg"><g opacity=".9" clip-path="url(#a)"><mask id="b" maskUnits="userSpaceOnUse" x="-6.203" y="-6.242" width="60.104" height="60.104" fill="#000"><path fill="#fff" d="M-6.2-6.24h60.1v60.1h-60.1z"/><path fill-rule="evenodd" clip-rule="evenodd" d="m1.7 28.93.75-.74a3.2 3.2 0 0 1 2.1-.94l-2.52-2.52a3.22 3.22 0 0 1 0-4.55l1.4-1.4a3.21 3.21 0 0 1 4.55 0l6.82 6.83 10.8-10.81-6.82-6.82a3.21 3.21 0 0 1 0-4.55l1.4-1.4a3.2 3.2 0 0 1 4.55 0l2.53 2.52a3.2 3.2 0 0 1 .93-2.1l.74-.74a3.2 3.2 0 0 1 4.56 0l3.23 3.23.76.76 4.83 4.82.75.76 3.24 3.24a3.22 3.22 0 0 1 0 4.55l-.75.74a3.2 3.2 0 0 1-2.1.94l2.52 2.52a3.21 3.21 0 0 1 0 4.55l-1.4 1.4a3.21 3.21 0 0 1-4.55 0l-6.34-6.34-10.8 10.8 6.34 6.35a3.2 3.2 0 0 1 0 4.55l-1.4 1.4a3.2 3.2 0 0 1-4.55 0l-2.52-2.53a3.2 3.2 0 0 1-.94 2.1l-.74.75a3.22 3.22 0 0 1-4.55 0l-3.24-3.24-.76-.76-4.82-4.82-.76-.76-3.23-3.23a3.21 3.21 0 0 1-.94-2.27v-.01c0-.83.31-1.65.94-2.28Zm1.09-8 1.4-1.39a2.13 2.13 0 0 1 3.04 0l21.23 21.24a2.13 2.13 0 0 1 0 3.04l-1.4 1.4a2.14 2.14 0 0 1-3.03 0l-21.24-21.25a2.14 2.14 0 0 1 0-3.04Zm-.33 8.76.75-.74a2.14 2.14 0 0 1 3.04 0l12.8 12.8a2.14 2.14 0 0 1 0 3.03l-.74.76a2.14 2.14 0 0 1-3.04 0l-12.8-12.81a2.13 2.13 0 0 1 0-3.03Zm26.49-26.48.74-.75a2.14 2.14 0 0 1 3.04 0l12.8 12.81a2.14 2.14 0 0 1 0 3.03l-.74.75a2.14 2.14 0 0 1-3.03 0l-12.81-12.8a2.14 2.14 0 0 1 0-3.03Zm-9.4.97 1.39-1.4a2.14 2.14 0 0 1 3.04 0l17.02 17.03 4.22 4.22a2.14 2.14 0 0 1 0 3.03l-1.4 1.4a2.14 2.14 0 0 1-3.04 0l-21.24-21.24a2.14 2.14 0 0 1 0-3.04Zm-3.81 22 5.31-5.3 5.32-5.32 6.55 6.56-10.62 10.62-6.56-6.56Z"/></mask><path fill-rule="evenodd" clip-rule="evenodd" d="m1.7 28.93.75-.74a3.2 3.2 0 0 1 2.1-.94l-2.52-2.52a3.22 3.22 0 0 1 0-4.55l1.4-1.4a3.21 3.21 0 0 1 4.55 0l6.82 6.83 10.8-10.81-6.82-6.82a3.21 3.21 0 0 1 0-4.55l1.4-1.4a3.2 3.2 0 0 1 4.55 0l2.53 2.52a3.2 3.2 0 0 1 .93-2.1l.74-.74a3.2 3.2 0 0 1 4.56 0l3.23 3.23.76.76 4.83 4.82.75.76 3.24 3.24a3.22 3.22 0 0 1 0 4.55l-.75.74a3.2 3.2 0 0 1-2.1.94l2.52 2.52a3.21 3.21 0 0 1 0 4.55l-1.4 1.4a3.21 3.21 0 0 1-4.55 0l-6.34-6.34-10.8 10.8 6.34 6.35a3.2 3.2 0 0 1 0 4.55l-1.4 1.4a3.2 3.2 0 0 1-4.55 0l-2.52-2.53a3.2 3.2 0 0 1-.94 2.1l-.74.75a3.22 3.22 0 0 1-4.55 0l-3.24-3.24-.76-.76-4.82-4.82-.76-.76-3.23-3.23a3.21 3.21 0 0 1-.94-2.27v-.01c0-.83.31-1.65.94-2.28Zm1.09-8 1.4-1.39a2.13 2.13 0 0 1 3.04 0l21.23 21.24a2.13 2.13 0 0 1 0 3.04l-1.4 1.4a2.14 2.14 0 0 1-3.03 0l-21.24-21.25a2.14 2.14 0 0 1 0-3.04Zm-.33 8.76.75-.74a2.14 2.14 0 0 1 3.04 0l12.8 12.8a2.14 2.14 0 0 1 0 3.03l-.74.76a2.14 2.14 0 0 1-3.04 0l-12.8-12.81a2.13 2.13 0 0 1 0-3.03Zm26.49-26.48.74-.75a2.14 2.14 0 0 1 3.04 0l12.8 12.81a2.14 2.14 0 0 1 0 3.03l-.74.75a2.14 2.14 0 0 1-3.03 0l-12.81-12.8a2.14 2.14 0 0 1 0-3.03Zm-9.4.97 1.39-1.4a2.14 2.14 0 0 1 3.04 0l17.02 17.03 4.22 4.22a2.14 2.14 0 0 1 0 3.03l-1.4 1.4a2.14 2.14 0 0 1-3.04 0l-21.24-21.24a2.14 2.14 0 0 1 0-3.04Zm-3.81 22 5.31-5.3 5.32-5.32 6.55 6.56-10.62 10.62-6.56-6.56Z" fill="#B01736"/><path clip-rule="evenodd" d="m1.7 28.93.75-.74a3.2 3.2 0 0 1 2.1-.94l-2.52-2.52a3.22 3.22 0 0 1 0-4.55l1.4-1.4a3.21 3.21 0 0 1 4.55 0l6.82 6.83 10.8-10.81-6.82-6.82a3.21 3.21 0 0 1 0-4.55l1.4-1.4a3.2 3.2 0 0 1 4.55 0l2.53 2.52a3.2 3.2 0 0 1 .93-2.1l.74-.74a3.2 3.2 0 0 1 4.56 0l3.23 3.23.76.76 4.83 4.82.75.76 3.24 3.24a3.22 3.22 0 0 1 0 4.55l-.75.74a3.2 3.2 0 0 1-2.1.94l2.52 2.52a3.21 3.21 0 0 1 0 4.55l-1.4 1.4a3.21 3.21 0 0 1-4.55 0l-6.34-6.34-10.8 10.8 6.34 6.35a3.2 3.2 0 0 1 0 4.55l-1.4 1.4a3.2 3.2 0 0 1-4.55 0l-2.52-2.53a3.2 3.2 0 0 1-.94 2.1l-.74.75a3.22 3.22 0 0 1-4.55 0l-3.24-3.24-.76-.76-4.82-4.82-.76-.76-3.23-3.23a3.21 3.21 0 0 1-.94-2.27v-.01c0-.83.31-1.65.94-2.28Zm1.09-8 1.4-1.39a2.13 2.13 0 0 1 3.04 0l21.23 21.24a2.13 2.13 0 0 1 0 3.04l-1.4 1.4a2.14 2.14 0 0 1-3.03 0l-21.24-21.25a2.14 2.14 0 0 1 0-3.04Zm-.33 8.76.75-.74a2.14 2.14 0 0 1 3.04 0l12.8 12.8a2.14 2.14 0 0 1 0 3.03l-.74.76a2.14 2.14 0 0 1-3.04 0l-12.8-12.81a2.13 2.13 0 0 1 0-3.03Zm26.49-26.48.74-.75a2.14 2.14 0 0 1 3.04 0l12.8 12.81a2.14 2.14 0 0 1 0 3.03l-.74.75a2.14 2.14 0 0 1-3.03 0l-12.81-12.8a2.14 2.14 0 0 1 0-3.03Zm-9.4.97 1.39-1.4a2.14 2.14 0 0 1 3.04 0l17.02 17.03 4.22 4.22a2.14 2.14 0 0 1 0 3.03l-1.4 1.4a2.14 2.14 0 0 1-3.04 0l-21.24-21.24a2.14 2.14 0 0 1 0-3.04Zm-3.81 22 5.31-5.3 5.32-5.32 6.55 6.56-10.62 10.62-6.56-6.56Z" stroke="#B01736" stroke-width=".8" mask="url(#b)"/></g><defs><clipPath id="a"><path fill="#fff" d="M0 0h48v48h-48z"/></clipPath></defs></svg>