<?xml version="1.0" standalone="no"?>
<!DOCTYPE svg PUBLIC "-//W3C//DTD SVG 20010904//EN"
 "http://www.w3.org/TR/2001/REC-SVG-20010904/DTD/svg10.dtd">
<svg version="1.0" xmlns="http://www.w3.org/2000/svg"
 width="1500.000000pt" height="1500.000000pt" viewBox="0 0 1500.000000 1500.000000"
 preserveAspectRatio="xMidYMid meet">
<metadata>
Created by potrace 1.14, written by Peter Selinger 2001-2017
</metadata>
<g transform="translate(0.000000,1500.000000) scale(0.100000,-0.100000)"
fill="#000000" stroke="none">
<path d="M5438 8995 c-2 -2 -21 -6 -43 -9 -22 -4 -56 -9 -75 -12 -140 -23
-309 -150 -369 -277 -25 -54 -35 -89 -57 -194 -2 -12 -10 -20 -17 -18 -6 2
-23 6 -37 9 -14 2 -47 10 -75 16 -81 19 -298 60 -345 65 -14 2 -39 6 -56 9
-17 3 -48 8 -70 11 -21 2 -50 7 -64 9 -14 3 -45 8 -70 11 -25 3 -56 7 -70 9
-80 13 -201 28 -330 41 -14 1 -56 6 -95 10 -110 12 -125 13 -220 20 -49 4
-110 8 -135 10 -331 25 -997 25 -1410 0 -153 -9 -270 -17 -305 -21 -48 -5
-127 -12 -215 -19 -36 -3 -76 -7 -90 -10 -14 -2 -54 -7 -90 -10 -36 -3 -81 -8
-100 -10 -19 -2 -62 -7 -95 -10 -33 -3 -71 -8 -85 -10 -14 -2 -52 -7 -85 -10
-56 -5 -314 -40 -360 -49 -11 -2 -42 -7 -70 -10 -86 -12 -86 -12 -84 -67 l2
-50 56 6 c31 3 72 8 91 10 19 3 60 7 90 10 30 3 75 7 100 10 64 6 154 14 235
20 39 3 99 7 135 10 36 3 99 7 140 10 41 2 118 6 170 10 196 13 831 20 1010
10 103 -5 252 -15 290 -20 19 -2 73 -7 120 -11 47 -3 93 -8 102 -9 9 -2 43 -6
75 -9 32 -4 74 -8 93 -11 19 -2 55 -7 80 -10 25 -4 57 -8 73 -11 15 -2 39 -6
55 -8 15 -3 47 -8 72 -11 25 -3 99 -17 165 -31 66 -13 134 -27 150 -30 42 -7
176 -39 340 -80 77 -20 147 -37 155 -39 32 -8 338 -97 379 -111 82 -28 76 -3
76 -291 l0 -258 140 0 c77 0 145 -3 150 -7 7 -4 10 -260 9 -737 0 -654 1 -731
15 -735 21 -6 742 -6 762 0 13 4 15 79 15 712 -1 389 1 721 4 737 l6 30 159
-3 c157 -2 429 -9 451 -11 8 -1 11 -119 11 -413 0 -375 6 -557 19 -620 2 -13
7 -39 10 -58 19 -129 111 -271 221 -344 34 -23 153 -70 153 -61 0 2 13 0 29
-5 103 -29 362 -30 566 -3 28 4 62 7 78 8 15 0 27 4 27 8 0 5 4 6 8 3 16 -10
127 30 126 45 -1 21 -15 160 -19 189 -4 33 -16 155 -21 205 -9 96 -11 116 -17
121 -4 4 -35 -1 -69 -11 -35 -10 -99 -19 -143 -19 -93 -1 -130 15 -161 72 -18
33 -19 62 -20 459 l-1 423 61 1 c146 4 345 18 359 26 4 2 7 134 7 293 0 275
-1 289 -18 285 -10 -2 -97 -6 -193 -10 -96 -4 -176 -8 -178 -11 -2 -2 -11 1
-21 6 -15 8 -17 41 -17 395 0 212 -2 387 -5 390 -3 3 -40 -13 -84 -36 -135
-71 -286 -150 -369 -194 -44 -23 -129 -68 -190 -100 -60 -31 -116 -63 -124
-70 -11 -10 -14 -53 -14 -189 l0 -175 -51 5 c-59 6 -110 12 -146 19 -14 2 -47
7 -75 10 -77 9 -162 25 -250 47 -44 11 -86 20 -93 20 -29 2 17 137 59 174 47
40 126 48 311 29 l67 -7 6 29 c4 15 9 35 11 43 3 8 8 33 10 55 3 22 9 54 14
70 5 17 11 46 14 65 3 19 10 55 15 80 17 81 22 128 14 133 -5 3 -40 8 -78 11
-39 4 -92 9 -120 12 -27 3 -77 7 -110 10 -75 6 -452 13 -457 9z"/>
<path d="M7727 8950 c-10 -4 -13 -293 -13 -1421 l0 -1417 392 0 391 0 0 1419
0 1419 -21 1 c-93 4 -739 3 -749 -1z"/>
<path d="M8848 8952 c-14 -3 -16 -35 -17 -273 l-2 -269 398 2 397 3 1 270 0
270 -381 0 c-209 0 -388 -1 -396 -3z"/>
<path d="M14548 8882 c-170 -42 -292 -258 -243 -430 33 -115 91 -184 194 -234
53 -25 76 -30 140 -31 109 -1 178 28 256 107 76 77 100 137 100 251 0 69 -4
89 -32 145 -79 165 -236 237 -415 192z m208 -96 c205 -96 211 -385 10 -488
-22 -11 -68 -23 -103 -26 -154 -12 -285 111 -285 268 0 196 203 328 378 246z"/>
<path d="M14519 8707 c-1 -7 -2 -88 -3 -180 l-1 -168 48 2 47 3 0 68 c0 66 1
68 26 68 21 0 30 -10 56 -69 31 -67 32 -69 69 -69 43 -1 54 9 40 35 -5 10 -17
39 -27 65 -9 26 -23 53 -30 59 -20 16 -17 27 7 34 52 17 53 109 1 143 -31 20
-231 28 -233 9z m185 -79 c18 -29 -4 -53 -53 -56 l-41 -3 0 41 0 41 41 -3 c27
-2 46 -9 53 -20z"/>
<path d="M13262 8213 c-296 -30 -515 -127 -693 -303 -71 -71 -166 -203 -201
-280 -26 -57 -64 -178 -74 -237 -2 -13 -7 -35 -10 -50 -4 -16 -8 -93 -10 -173
-6 -281 54 -493 193 -689 146 -204 349 -332 592 -372 36 -6 73 -12 81 -14 90
-18 396 -23 545 -10 85 8 120 12 120 15 0 1 14 3 32 6 28 3 70 12 133 28 49
13 193 70 205 82 7 8 16 14 20 14 18 0 159 116 216 178 66 71 169 212 169 230
0 10 -59 18 -260 36 -30 2 -75 7 -100 10 -25 3 -76 8 -115 11 -38 3 -86 7
-105 9 -19 3 -67 7 -106 10 l-72 7 -59 -59 c-61 -61 -148 -111 -206 -117 -17
-2 -45 -6 -62 -8 -53 -8 -158 14 -218 46 -91 48 -149 119 -180 219 -28 92 -37
137 -28 140 3 0 346 2 761 4 415 1 765 3 777 3 19 1 22 6 19 37 -1 19 1 37 4
39 15 9 -4 261 -27 370 -2 11 -6 31 -9 45 -22 113 -84 260 -152 359 -44 63
-195 221 -212 221 -5 0 -15 6 -22 13 -42 42 -255 133 -353 151 -209 39 -410
49 -593 29z m288 -478 c146 -32 246 -149 276 -322 2 -13 6 -34 8 -48 3 -13 7
-29 11 -35 10 -17 -33 -19 -405 -17 l-365 2 2 35 c2 52 42 167 75 222 80 130
244 197 398 163z"/>
<path d="M997 8204 c-1 -1 -45 -4 -97 -8 -52 -3 -106 -8 -120 -11 -14 -3 -45
-8 -70 -11 -172 -21 -360 -111 -470 -224 -75 -77 -107 -126 -136 -209 -38
-110 -37 -280 2 -368 8 -17 14 -35 14 -40 0 -19 73 -114 134 -175 69 -69 160
-123 256 -153 30 -9 62 -19 70 -22 8 -3 24 -8 34 -10 11 -2 49 -10 85 -19 62
-14 234 -48 311 -60 109 -18 322 -74 367 -97 42 -22 73 -75 73 -123 -1 -48
-11 -66 -78 -139 l-53 -58 -97 6 c-53 3 -108 8 -122 12 -14 3 -38 9 -55 12
-114 20 -189 78 -237 180 -27 61 -29 63 -61 58 -17 -2 -61 -6 -97 -9 -36 -3
-114 -11 -175 -17 -60 -5 -135 -12 -165 -14 -30 -2 -68 -6 -85 -9 -16 -2 -70
-8 -120 -11 -49 -4 -92 -8 -96 -11 -4 -2 1 -30 10 -62 54 -175 178 -338 320
-419 51 -30 148 -68 197 -77 232 -47 224 -45 339 -53 177 -12 407 -6 540 13
80 11 246 55 302 80 161 71 307 201 366 326 75 158 90 240 70 383 -4 28 -7 53
-7 57 -1 3 -4 10 -9 14 -4 4 -7 13 -7 21 0 23 -42 105 -79 158 -113 156 -294
247 -596 299 -16 3 -42 7 -57 10 -57 12 -85 16 -153 22 -38 4 -73 8 -78 11 -4
2 -17 6 -30 8 -12 2 -56 9 -97 15 -125 20 -208 53 -235 94 -20 30 -25 94 -9
124 33 64 88 88 217 98 73 5 122 -5 201 -41 59 -27 90 -60 118 -121 17 -39 31
-50 60 -45 4 0 27 3 50 5 24 3 70 8 103 11 33 4 80 9 105 10 25 2 70 7 100 10
30 3 75 7 100 10 25 2 77 7 115 11 39 4 81 8 94 8 14 1 26 7 28 13 6 17 -82
179 -133 246 -93 123 -260 225 -410 251 -16 3 -53 10 -83 16 -75 14 -453 33
-464 24z"/>
<path d="M3417 8204 c-1 -2 -40 -4 -85 -5 -46 -1 -104 -6 -130 -11 -26 -4 -58
-10 -72 -13 -68 -12 -92 -19 -175 -47 -151 -52 -278 -132 -396 -250 -210 -209
-309 -466 -302 -788 1 -58 2 -105 3 -105 1 0 3 -11 6 -25 11 -64 13 -76 17
-95 12 -49 52 -156 83 -220 61 -126 213 -307 320 -381 102 -72 309 -160 414
-177 19 -3 49 -8 65 -12 81 -14 379 -22 445 -11 14 3 43 7 65 10 143 20 238
48 352 101 90 43 208 123 268 182 139 138 245 327 285 508 20 87 22 108 27
227 6 136 -8 253 -43 376 -77 268 -272 501 -514 615 -73 34 -224 83 -280 90
-25 4 -56 9 -70 12 -43 9 -277 25 -283 19z m172 -557 c67 -34 145 -108 172
-163 11 -24 19 -45 18 -46 -1 -2 3 -13 10 -25 38 -72 50 -337 21 -474 -25
-115 -54 -173 -117 -237 -69 -69 -142 -103 -231 -106 -121 -5 -202 26 -286
110 -40 40 -93 140 -102 191 -3 15 -7 35 -9 43 -9 30 -18 126 -18 195 0 243
58 388 193 487 84 62 252 73 349 25z"/>
<path d="M11305 8200 c-2 -4 -23 -7 -47 -8 -181 -11 -359 -105 -525 -279 l-72
-76 -3 164 -3 164 -368 0 c-360 0 -368 0 -372 -20 -2 -11 -3 -477 -2 -1035 l2
-1015 395 0 395 0 1 550 c1 303 4 568 7 590 22 140 61 230 126 285 134 116
354 88 428 -53 15 -29 17 -38 33 -112 5 -22 9 -315 10 -650 l0 -611 395 0 395
0 1 91 c1 322 -2 1335 -5 1360 -27 220 -84 361 -192 469 -84 85 -211 150 -332
171 -85 15 -261 24 -267 15z"/>
<path d="M8831 7134 l0 -1031 397 0 397 0 0 1031 0 1031 -397 0 -397 0 0
-1031z"/>
</g>
</svg>
